<?xml version="1.0" standalone="no"?><!DOCTYPE svg PUBLIC "-//W3C//DTD SVG 1.1//EN" "http://www.w3.org/Graphics/SVG/1.1/DTD/svg11.dtd"><svg t="1487042891798" class="icon" style="" viewBox="0 0 1024 1024" version="1.1" xmlns="http://www.w3.org/2000/svg" p-id="1003" xmlns:xlink="http://www.w3.org/1999/xlink" width="100%" height="100%"><defs><style type="text/css"></style></defs><path fill="#fff" d="M505.353626 88.029916c-216.918401 0-392.767432 175.825494-392.767432 392.767432 0 216.892819 175.84903 392.770502 392.767432 392.770502 216.914308 0 392.790968-175.877683 392.790968-392.770502C898.144594 263.85541 722.267934 88.029916 505.353626 88.029916L505.353626 88.029916zM505.353626 821.198108c-187.993628 0-340.39769-152.399969-340.39769-340.40076 0-187.998745 152.404062-340.398714 340.39769-340.398714 188.017164 0 340.42225 152.399969 340.42225 340.398714C845.775876 668.798139 693.371814 821.198108 505.353626 821.198108L505.353626 821.198108z" p-id="1004"></path><path fill="#fff" d="M470.301296 595.435271c-17.386996 14.474666-38.559201 21.682835-63.541175 21.682835-20.557198 0-39.685861-5.368264-57.379848-15.905248-17.59268-10.587126-30.583552-26.593681-38.969547-47.968501-8.338922-21.427008-12.530384-46.438659-12.530384-75.133188 0-22.245653 3.530406-43.877323 10.587126-64.794725 7.055696-20.966521 19.228947-37.640272 36.72032-50.121538 17.385972-12.374842 39.069831-18.562774 65.052598-18.562774 22.525016 0 41.240263 5.575995 56.125275 16.723893 14.880919 11.253298 26.235524 29.148877 34.059724 53.646827l43.928488-10.380418c-9.051143-31.095205-25.007557-55.233975-48.070832-72.41631-23.01211-17.183358-51.398624-25.876344-85.173868-25.876344-29.765931 0-57.025785 6.848988-81.776492 20.455891-24.804942 13.552667-43.877323 33.44267-57.328683 59.576887-13.450337 26.183336-20.152992 56.819077-20.152992 92.004437 0 32.169677 5.907547 62.343907 17.84953 90.37124 11.866259 28.127617 29.255301 49.555649 52.011584 64.334237 22.759353 14.830777 52.317553 22.194488 88.73088 22.194488 35.107589 0 64.87352-9.612938 89.164762-28.839839 24.345478-19.282159 41.170678-47.258327 50.528813-83.925435l-44.650943-11.253298C499.349889 559.637973 487.590054 581.064982 470.301296 595.435271L470.301296 595.435271z" p-id="1005"></path><path fill="#fff" d="M517.758144 468.928019l139.255601 0 0 24.559349-139.255601 0 0-24.559349Z" p-id="1006"></path><path fill="#fff" d="M575.10627 415.974993l24.559349 0 0 132.509966-24.559349 0 0-132.509966Z" p-id="1007"></path><path fill="#fff" d="M675.594939 468.518696l139.255601 0 0 24.559349-139.255601 0 0-24.559349Z" p-id="1008"></path><path fill="#fff" d="M732.943065 415.566694l24.559349 0 0 132.509966-24.559349 0 0-132.509966Z" p-id="1009"></path></svg>