<?xml version="1.0" standalone="no"?><!DOCTYPE svg PUBLIC "-//W3C//DTD SVG 1.1//EN" "http://www.w3.org/Graphics/SVG/1.1/DTD/svg11.dtd"><svg t="1487128787268" class="icon" style="" viewBox="0 0 1024 1024" version="1.1" xmlns="http://www.w3.org/2000/svg" p-id="2022" xmlns:xlink="http://www.w3.org/1999/xlink" width="100%" height="100%"><defs><style type="text/css"></style></defs><path d="M936.166471 199.460997l-312.539515 312.539515 312.539515 312.540538 0 0c14.284345 14.284345 23.123673 34.014732 23.123673 55.818339 0 43.596981-35.344008 78.931779-78.942012 78.931779-21.794397 0-41.524784-8.847514-55.809129-23.12265l0 0-312.539515-312.539515-312.540538 312.539515 0 0c-14.284345 14.275136-34.023942 23.12265-55.818339 23.12265-43.596981 0-78.931779-35.333775-78.931779-78.931779 0-21.803607 8.829095-41.533993 23.11344-55.818339l0 0 312.540538-312.540538-312.540538-312.539515 0 0c-14.284345-14.284345-23.11344-34.024965-23.11344-55.818339 0-43.587771 35.334798-78.931779 78.931779-78.931779 21.794397 0 41.533993 8.829095 55.818339 23.12265l0 0 312.540538 312.539515 312.539515-312.539515 0 0c14.284345-14.293555 34.014732-23.12265 55.809129-23.12265 43.596981 0 78.942012 35.344008 78.942012 78.931779C959.290145 165.436032 950.450817 185.176651 936.166471 199.460997L936.166471 199.460997z" p-id="2023" fill="inherit"></path></svg>