<?xml version="1.0" standalone="no"?><!DOCTYPE svg PUBLIC "-//W3C//DTD SVG 1.1//EN" "http://www.w3.org/Graphics/SVG/1.1/DTD/svg11.dtd"><svg t="1487042008709" class="icon" style="" viewBox="0 0 1024 1024" version="1.1" xmlns="http://www.w3.org/2000/svg" p-id="1958" xmlns:xlink="http://www.w3.org/1999/xlink" width="100%" height="100%"><defs><style type="text/css"></style></defs><path d="M745.146287 181.805451c-29.447362 20.741185-58.126532 38.409602-89.622406 64.016004-23.813953 19.460865-66.832708 46.091523-69.137284 81.940485-3.584896 54.541635 80.404101 104.986247 35.848962 174.123531-16.900225 26.374594-45.579395 37.64141-81.940485 53.773443-4.353088-7.937984 9.474369-14.595649 15.363841-23.045761 55.821955-80.916229-58.126532-107.802951-43.530883-207.411853C526.211553 228.92123 639.647912 195.376844 745.146287 181.805451z" p-id="1959" fill="#ffffff"></path><path d="M389.217304 514.688672c-26.374594 12.291073-70.417604 14.595649-89.622406 40.970243 19.460865 14.595649 47.883971 14.083521 74.258565 15.363841 108.059015 4.865216 243.260815-4.353088 335.443861-20.485121 3.072768 6.657664-12.803201 18.180545-23.045761 25.606402-58.126532 42.506627-238.907727 54.541635-363.610903 46.091523-41.738435-2.816704-137.250313-13.827457-138.274569-51.212803-1.28032-45.323331 115.740935-50.188547 163.88097-53.773443C357.72143 516.48112 375.389847 512.64016 389.217304 514.688672z" p-id="1960" fill="#ffffff"></path><path d="M335.443861 629.917479c12.035009 1.536384-8.450113 8.706177-5.12128 17.924481 44.043011 43.530883 181.037259 31.23981 248.382096 17.924481 14.083521-2.816704 28.167042-11.266817 38.409602-10.242561 25.606402 2.304576 41.994499 32.008002 64.016004 35.848962-77.843461 35.08077-228.153038 51.724931-338.004501 30.727682-28.423106-5.377344-77.843461-20.741185-79.379845-43.530883C261.44136 647.585896 312.654164 634.526632 335.443861 629.917479z" p-id="1961" fill="#ffffff"></path><path d="M368.732183 734.903726c7.937984 2.56064-2.816704 6.913728-2.56064 10.242561 23.301825 40.458115 138.530633 26.11853 197.169292 12.803201 11.778945-2.816704 23.557889-11.010753 33.288322-10.242561 29.703426 2.048512 40.970243 33.032258 66.576644 38.409602-81.684421 49.932483-279.621905 70.16154-361.050263 7.68192C298.314579 748.219055 334.931733 743.097774 368.732183 734.903726z" p-id="1962" fill="#ffffff"></path><path d="M294.473618 811.722931c-24.326082 6.145536-87.317829-2.56064-89.622406 30.727682-0.768192 12.803201 21.509377 27.910978 35.848962 33.288322 83.476869 31.495874 251.1988 36.36109 389.217304 20.485121 64.016004-7.425856 184.366092-28.935234 169.002251-94.743686 19.204801 2.304576 36.36109 14.595649 38.409602 33.288322 7.68192 70.673668-154.662666 100.377094-220.215054 107.546887-142.627657 15.619905-320.848212 12.547137-430.187547-25.606402-35.592898-12.291073-78.611653-35.08077-76.819205-69.137284C113.180295 790.213553 251.454864 774.337584 294.473618 811.722931z" p-id="1963" fill="#ffffff"></path><path d="M512.128032 1024c-96.024006-10.498625-188.463116-24.582146-266.306577-58.894724 203.570893 48.908227 500.349087 45.323331 642.72068-58.894724 7.68192-5.633408 14.851713-16.644161 25.606402-15.363841-35.848962 107.546887-173.611403 114.972743-291.912978 133.153288C585.362341 1024 548.745186 1024 512.128032 1024z" p-id="1964" fill="#ffffff"></path><path d="M578.704676 7.68192c17.924481 16.900225 30.727682 48.396099 30.727682 81.940485 0 99.096774-104.986247 156.455114-156.19905 222.775694-11.266817 14.851713-25.862466 37.64141-25.606402 61.455364 0.512128 54.029507 56.334084 114.460615 76.819205 158.75969-35.848962-23.557889-79.379845-55.053763-110.107527-92.183046-30.727682-36.873218-61.455364-96.792198-33.288322-148.517129 42.250563-77.843461 167.977994-124.191048 212.533133-207.411853C584.338085 64.272068 592.788197 33.288322 578.704676 7.68192z" p-id="1965" fill="#ffffff"></path><path d="M729.782446 540.295074c52.749187-45.067267 142.115529-27.39885 145.956489 48.652163 4.353088 89.110278-93.207302 139.042761-163.88097 143.395849 32.776194-31.23981 119.325831-81.428357 102.425606-153.63841C807.369842 549.513378 771.008752 531.844961 729.782446 540.295074z" p-id="1966" fill="#ffffff"></path></svg>