<?xml version="1.0" standalone="no"?><!DOCTYPE svg PUBLIC "-//W3C//DTD SVG 1.1//EN" "http://www.w3.org/Graphics/SVG/1.1/DTD/svg11.dtd"><svg t="1487046953702" class="icon" style="" viewBox="0 0 1126 1024" version="1.1" xmlns="http://www.w3.org/2000/svg" p-id="2229" xmlns:xlink="http://www.w3.org/1999/xlink" width="100%" height="100%"><defs><style type="text/css"></style></defs><path fill="#fff" d="M562.226381 318.690611c-28.90537-24.198246-73.227571-36.961382-133.723853-36.961382-55.757926 0-96.762982 4.043674-126.332416 9.414246v446.851175h81.977651V567.310029c10.741043 2.022093 24.863539 2.684928 40.310375 2.684928 58.475315 0 110.220288-15.446938 143.138611-48.364032 25.556378-24.199475 38.982451-59.834163 38.982451-102.828237 0-42.331955-17.470157-77.934694-44.352819-100.112077zM424.45824 505.519411c-16.774861 0-30.232166-0.663962-40.310374-3.349504V348.954829c8.752026-2.021581 24.863539-4.044288 47.702425-4.044288 57.11657 0 92.056474 26.884403 92.056474 77.271859 0 53.104845-37.625446 83.337011-99.448525 83.337011z" p-id="2230"></path><path fill="#fff" d="M57.720422 6.637568v1010.842419h1010.87488V6.637568H57.720422z m945.256346 941.523046H123.338957V68.551782h879.637811v879.608832z" p-id="2231"></path><path fill="#fff" d="M715.410022 745.419162c-39.646413 0-75.248435-10.076979-99.449241-23.534183l16.11223-59.8016c18.82839 11.436339 54.431642 23.504077 84.000973 23.504077 36.296192 0 52.408422-14.785331 52.408422-36.267315 0-22.176051-13.425971-33.611162-53.736448-47.734989-63.844557-22.176051-90.727936-57.114214-90.064998-95.403622 0-57.778893 47.733658-102.827622 123.646157-102.827623 36.267213 0 67.88905 9.414246 86.686003 19.492352l-16.112128 58.473575c-14.121267-8.055501-40.341709-18.827162-69.215846-18.827162-29.568102 0-45.711565 14.120653-45.711565 34.275942 0 20.850586 15.448064 30.895002 57.116569 45.711565 59.138765 21.513421 86.684774 51.746816 87.348839 100.110848 0 59.137638-46.344294 102.828237-133.061632 102.828237h0.032665v-0.000102z" p-id="2232"></path></svg>