<?xml version="1.0" standalone="no"?><!DOCTYPE svg PUBLIC "-//W3C//DTD SVG 1.1//EN" "http://www.w3.org/Graphics/SVG/1.1/DTD/svg11.dtd"><svg t="1486694873334" class="icon" style="" viewBox="0 0 1024 1024" version="1.1" xmlns="http://www.w3.org/2000/svg" p-id="694" xmlns:xlink="http://www.w3.org/1999/xlink" width="100%" height="100%"><defs><style type="text/css"></style></defs><path d="M882.375445 412.311557c-82.638115-66.469877-231.747131-21.557992-231.747131-21.557992s41.319058-53.894468 104.196107-120.365368-1.796926-147.31209-62.877049-181.445492c-61.081147-34.133402-154.497747 8.982582-203.003484 57.487296-48.505737 48.505737-53.894468 170.667008-53.894468 170.667008-104.196107-289.23545-325.164754-109.585861-310.792419 0 14.372336 109.585861 174.259836 181.445492 174.259836 181.445492-192.224999 16.168238-224.561475 88.027869-217.375819 158.091598 7.185656 70.062705 93.417623 149.109016 190.428074 138.329509s159.8875-116.771517 159.8875-116.771517c-43.115983 264.084631 68.266803 276.66004 120.365368 265.880533s91.620697-28.743648 138.329509-100.603279-39.523155-228.154303-39.523155-228.154303c149.109016 93.417623 237.136885 68.266803 267.677459 16.168238C948.845323 579.385736 965.013561 478.781434 882.375445 412.311557zM575.503313 560.875151c-1.351787 0.964978-2.911306 1.429559-4.454452 1.429559-2.39556 0-4.754281-1.11745-6.252401-3.215228-11.208273-15.692401-38.937824-31.416524-60.292178-34.413787 1.311879 3.643993 2.016937 7.481392 2.091638 11.511171 0.611937 32.832779-41.543162 63.324234-43.338041 64.606437-1.351787 0.964978-2.910283 1.429559-4.454452 1.429559-2.394537 0-4.754281-1.118474-6.251378-3.215228-2.464121-3.449565-1.664919-8.242731 1.784646-10.706853 9.697873-6.92676 37.294394-31.315216 36.911678-51.828412-0.071631-3.843538-1.163499-7.408737-3.281743-10.745738-1.573845 0.620124-3.0208 1.454118-4.245697 2.567475-22.421662 20.38119-81.514525 1.822508-88.178295-0.361227-4.028757-1.320065-6.223748-5.65479-4.903683-9.682523s5.655813-6.224772 9.680477-4.904707c21.904892 7.161097 61.113893 14.467503 73.077366 3.590781 0.856507-0.778736 1.766226-1.499144 2.723018-2.166339-39.920198-27.52796-34.570353-76.146261-34.319643-78.225619 0.50756-4.207835 4.321422-7.203052 8.538467-6.701632 4.200672 0.506537 7.198959 4.318352 6.703679 8.518001-0.192382 1.676176-4.233418 40.216957 26.182312 62.621223 3.492544-15.944134 13.377682-31.783891 29.223578-46.578852 16.117073-15.048741 33.858132-24.689309 37.881772-25.813922 4.38896-1.227967 7.882528 1.169639 9.268084 3.918239 1.435699 2.849908 1.212618 7.028067-2.526543 9.93528-1.204431 0.936325-2.601244 1.458211-4.015454 1.585101-10.136871 4.974291-51.730175 30.996968-55.616692 64.796772 2.193968-0.01228 4.468778 0.102331 6.825452 0.353041 26.112728 2.788509 58.869782 21.176298 73.022107 40.989553C579.75208 553.617863 578.952878 558.411029 575.503313 560.875151z" p-id="695" fill="#f4ea2a"></path></svg>