<?xml version="1.0" standalone="no"?><!DOCTYPE svg PUBLIC "-//W3C//DTD SVG 1.1//EN" "http://www.w3.org/Graphics/SVG/1.1/DTD/svg11.dtd"><svg t="1486695031052" class="icon" style="" viewBox="0 0 1024 1024" version="1.1" xmlns="http://www.w3.org/2000/svg" p-id="1244" xmlns:xlink="http://www.w3.org/1999/xlink" width="100%" height="100%"><defs><style type="text/css"></style></defs><path d="M261.517312 581.02784c-68.816896 16.9472-155.803648 25.1648-205.14816 72.793088 6.404096 17.545216 22.043648 36.718592 39.49056 46.596096 8.774656-9.153536 93.293568-86.034432 102.023168-68.63872 72.2432 143.241216 303.332352 150.22592 416.288768 66.608128C743.174144 602.53696 801.047552 407.575552 988.186624 377.55392c-218.43968-58.698752-451.784704-163.270656-663.728128-58.625024-76.828672 37.912576-187.48928 174.846976-112.049152 255.40608 128.038912-37.653504 196.516864-67.284992 263.5776-173.124608-6.755328 36.44928-29.234176 70.699008-39.748608 106.522624 93.622272-28.367872 172.849152-67.549184 276.432896-62.567424-117.208064 56.421376-256.718848 79.785984-373.773312 135.230464 35.628032 18.095104 70.67648 40.288256 94.676992 69.53472C376.384512 634.38336 312.996864 604.007424 261.517312 581.02784z" p-id="1245" fill="#f4ea2a"></path></svg>