<?xml version="1.0" standalone="no"?><!DOCTYPE svg PUBLIC "-//W3C//DTD SVG 1.1//EN" "http://www.w3.org/Graphics/SVG/1.1/DTD/svg11.dtd"><svg t="1486712652225" class="icon" style="" viewBox="0 0 1024 1024" version="1.1" xmlns="http://www.w3.org/2000/svg" p-id="1970" xmlns:xlink="http://www.w3.org/1999/xlink" width="100%" height="100%"><defs><style type="text/css"></style></defs><path d="M64.044642 908.086014l183.646624 0L247.691265 511.917112 64.044642 511.917112 64.044642 908.086014zM939.611008 685.126013c11.584849-15.219633 18.348903-36.787858 18.348903-62.228273 0-25.598005-6.854105-47.313585-18.542308-62.511729 8.589632-12.039197 13.58132-27.937283 13.58132-46.00273 0-25.053606-9.848299-49.913806-26.976398-68.136843-14.556531-15.473413-41.346687-33.881668-86.447884-33.881668L706.936761 412.364769c-66.795289 0-94.40409-5.132904-105.236809-8.455579 0.320295-0.842181 0.715291-1.787716 1.065262-2.934842 8.269337-21.783119 23.556509-62.318324 23.556509-213.528188 0-42.695405-27.490098-123.444497-131.623783-123.444497-27.690666 0-58.45125 2.622734-76.68145 22.089088-20.286022 21.574365-16.188704 51.948139-10.437723 94.01728 3.829212 28.085662 8.552793 63.040778 8.552793 106.883309-0.045025 135.579885-121.939213 229.27687-123.153878 230.185566l-9.53619 7.211239 0 366.54828 3.784186 5.796006c9.416464 14.326287 63.368236 61.126172 361.02038 61.126172l191.32756 0c45.101197 0 71.891354-18.408255 86.447884-33.867342 17.127076-18.282389 26.976398-43.082214 26.976398-68.158333 0-18.065448-4.991688-33.942043-13.58132-46.009893 11.689227-15.21247 18.542308-36.899398 18.542308-62.527079C957.959911 721.891358 951.195857 700.324156 939.611008 685.126013z" p-id="1971"></path></svg>